<svg xmlns="http://www.w3.org/2000/svg" viewBox="0 0 141.48 102.14"><defs><style>.cls-1{fill:#5c6978;}.cls-2{fill:#f8f3e8;}</style></defs><g id="Layer_2" data-name="Layer 2"><g id="Layer_1-2" data-name="Layer 1"><path class="cls-1" d="M70.62,102c-21,0-41.93-.11-62.9.09A7.55,7.55,0,0,1,0,94.39Q.08,51.15,0,7.89C0,2.72,2.83,0,8.06,0H133.35c5.36,0,8.08,2.72,8.08,8.1,0,28.67,0,57.34,0,86a7.8,7.8,0,0,1-8,8C112.55,101.91,91.58,102,70.62,102Zm.23-99.4h0q-31.32,0-62.63,0c-4.5,0-5.9,1.43-5.9,6q0,42.38,0,84.75c0,4.79,1.53,6.29,6.17,6.29q62.25,0,124.51,0c4.59,0,6.16-1.49,6.16-6L139.05,8.9c0-5-1.26-6.26-6.32-6.26Z"/><path class="cls-2" d="M70.53,96.61H10.12c-3.53,0-4.79-1.23-4.79-4.73V10.58c0-3.68,1.53-5.23,5.27-5.23H130.19c4.68,0,5.85,1.2,5.85,5.83q0,40.15,0,80.31c0,4.1-1,5.13-5.11,5.13Q100.74,96.63,70.53,96.61ZM25.58,79.39a5.42,5.42,0,0,0,1.06.22c7.29,0,14.6.35,21.86-.1a17.84,17.84,0,0,0,12.72-5.84c4-4.63,5-10.35,5.15-16.18.2-6.12,0-12.26.06-18.39V36.35H80c3.22,0,3.22,0,3.22,3.15q0,18.89.06,37.77c0,1-.5,2.35,1.29,2.36,4.7,0,9.41,0,14.44,0V36.26h16.87V22.79c-.56-.06-1-.15-1.35-.15-20.29-.08-40.57-.11-60.86-.28-2.34,0-3.07.55-3.06,3,0,11.19-.14,22.37-.29,33.55-.06,4.67-2.87,7.44-7.41,7.47-4,0-7.95,0-11.93,0H25.58Z"/></g></g></svg>