<svg xmlns="http://www.w3.org/2000/svg" viewBox="0 0 494.66 102.14"><defs><style>.cls-1{fill:#5c6978;}.cls-2{fill:#f8f3e8;}</style></defs><g id="Layer_2" data-name="Layer 2"><g id="Layer_1-2" data-name="Layer 1"><path class="cls-1" d="M70.62,102c-21,0-41.93-.11-62.9.09A7.55,7.55,0,0,1,0,94.39Q.08,51.15,0,7.89C0,2.72,2.83,0,8.06,0H133.35c5.36,0,8.08,2.72,8.08,8.1,0,28.67,0,57.34,0,86a7.8,7.8,0,0,1-8,8C112.55,101.91,91.58,102,70.62,102Zm.23-99.4h0q-31.32,0-62.63,0c-4.5,0-5.9,1.43-5.9,6q0,42.38,0,84.75c0,4.79,1.53,6.29,6.17,6.29q62.25,0,124.51,0c4.59,0,6.16-1.49,6.16-6L139.05,8.9c0-5-1.26-6.26-6.32-6.26Z"/><path class="cls-2" d="M70.53,96.61H10.12c-3.53,0-4.79-1.23-4.79-4.73V10.58c0-3.68,1.53-5.23,5.27-5.23H130.19c4.68,0,5.85,1.2,5.85,5.83q0,40.15,0,80.31c0,4.1-1,5.13-5.11,5.13Q100.74,96.63,70.53,96.61ZM25.58,79.39a5.42,5.42,0,0,0,1.06.22c7.29,0,14.6.35,21.86-.1a17.84,17.84,0,0,0,12.72-5.84c4-4.63,5-10.35,5.15-16.18.2-6.12,0-12.26.06-18.39V36.35H80c3.22,0,3.22,0,3.22,3.15q0,18.89.06,37.77c0,1-.5,2.35,1.29,2.36,4.7,0,9.41,0,14.44,0V36.26h16.87V22.79c-.56-.06-1-.15-1.35-.15-20.29-.08-40.57-.11-60.86-.28-2.34,0-3.07.55-3.06,3,0,11.19-.14,22.37-.29,33.55-.06,4.67-2.87,7.44-7.41,7.47-4,0-7.95,0-11.93,0H25.58Z"/><path class="cls-2" d="M200,34.45q0,17.79-24.41,17.79h-17.8V42.15h17.8q6.12,0,8.78-1.3c2.32-1.12,3.48-3.26,3.48-6.4V13.13H200Z"/><path class="cls-2" d="M263.28,32.33a17.89,17.89,0,0,1-6.7,14.24q-6.7,5.67-16.9,5.67H227.91q-10.26,0-17-5.67a17.86,17.86,0,0,1-6.7-14.24,17,17,0,0,1,6.65-13.89q6.65-5.31,17-5.31h11.77q10.37,0,17,5.31A17,17,0,0,1,263.28,32.33Zm-23.6-9.06H227.91A12.63,12.63,0,0,0,219.6,26a8.5,8.5,0,0,0-3.25,6.86,8.17,8.17,0,0,0,3.25,6.75,13,13,0,0,0,8.31,2.58h11.77a13,13,0,0,0,8.3-2.58,8.17,8.17,0,0,0,3.25-6.75A8.47,8.47,0,0,0,248,26,12.65,12.65,0,0,0,239.68,23.27Z"/><path class="cls-2" d="M317.15,13.13l-7.81,10.14H281.67c-1.49,0-2.23.53-2.23,1.58s.74,1.57,2.23,1.57h19.91a19.68,19.68,0,0,1,11.88,3.47,11.41,11.41,0,0,1,4.94,9.55,11,11,0,0,1-5,9.38q-4.67,3.42-11.83,3.42H265.77l7.81-10.09h28A8.72,8.72,0,0,0,305,41.5q2-.81,1.95-2.22c0-1-.65-1.72-1.95-2.23a9.9,9.9,0,0,0-3.42-.54H281.67a19.17,19.17,0,0,1-11.07-3,10.24,10.24,0,0,1,0-17.31,19.24,19.24,0,0,1,11.07-3Z"/><path class="cls-2" d="M370.32,52.24h-12.1V37.65H334.94V52.24H322.79V13.13h12.15V27.5h23.28V13.13h12.1Z"/><path class="cls-2" d="M427.33,34.45q0,17.79-24.41,17.79h-2.55Q376,52.24,376,34.45V13.13h12.1V34.45q0,5.31,4.66,6.83,2.5.87,10.2.87,6.13,0,8.74-1.3c2.35-1.12,3.52-3.26,3.52-6.4V13.13h12.15Z"/><path class="cls-2" d="M448.71,52.24,456,42.1h16.33l-10.14-14L444.59,52.24h-15l25.06-34.77a10.85,10.85,0,0,1,3.31-3A8.74,8.74,0,0,1,462.44,13a8.52,8.52,0,0,1,4.5,1.41,10.78,10.78,0,0,1,3.25,3l24.47,34.77Z"/><path class="cls-1" d="M188.76,63.18l-5.18,6.69h-7.72V89h-8V69.87H157.25l5.14-6.69Z"/><path class="cls-1" d="M220.42,89h-8V63.18h8Z"/><path class="cls-1" d="M276.45,85.62q0,3.51-3.18,3.51a6.78,6.78,0,0,1-4.36-1.72L253.83,74.8V89h-8V66.51a3.21,3.21,0,0,1,.91-2.36,3.46,3.46,0,0,1,2.59-.93,6.2,6.2,0,0,1,4,1.54l15.08,12.61V63.18h8Z"/><path class="cls-1" d="M334,63.18l-5.14,6.69H315.9a8.37,8.37,0,0,0-5.45,1.76,5.59,5.59,0,0,0-2.16,4.52,5.39,5.39,0,0,0,2.14,4.45,8.57,8.57,0,0,0,5.47,1.7h9.29V79.91h-10l-5.26-6.36H333.2V89H315.9a16.63,16.63,0,0,1-11.13-3.74,11.77,11.77,0,0,1-4.41-9.38,11.15,11.15,0,0,1,4.36-9.14q4.35-3.51,11.18-3.51Z"/><path class="cls-1" d="M383.69,82.3,378.51,89H355.74V63.18h8V82.3Z"/><path class="cls-1" d="M433.68,82.3,428.53,89H405.7V63.18h28l-5.15,6.69H413.7v2.71h18.73l-5.15,6.65H413.7V82.3Z"/><path class="cls-1" d="M494.57,89H483l-7.79-6.47h-11V89h-8V75.8h22.23a8,8,0,0,0,3.36-.61,2.5,2.5,0,0,0,1.68-2.32q0-3-5-3H456.15l5.22-6.69h16.26a18.67,18.67,0,0,1,9.79,2.29,8.27,8.27,0,0,1,4.22,7.43,7.88,7.88,0,0,1-1.7,4.92,10.7,10.7,0,0,1-4.7,3.37Z"/></g></g></svg>